<svg version="1.1" id="Layer_1" xmlns="http://www.w3.org/2000/svg" xmlns:xlink="http://www.w3.org/1999/xlink" x="0px" y="0px"
	 width="100%" viewBox="0 0 2000 1500" enable-background="new 0 0 2000 1500" xml:space="preserve">
<path fill="#EA3C12" opacity="1.000000" stroke="none" 
	d="
M1068.000000,1501.000000 
	C712.000122,1501.000000 356.500214,1501.000000 1.000238,1501.000000 
	C1.000159,1001.000244 1.000159,501.000519 1.000080,1.000574 
	C667.666199,1.000383 1334.332397,1.000383 2000.999023,1.000191 
	C2000.999268,500.999390 2000.999268,1000.998779 2000.999634,1500.999023 
	C1690.166626,1501.000000 1379.333374,1501.000000 1068.000000,1501.000000 
M1201.500122,661.249451 
	C1164.836182,661.249329 1128.172363,661.258972 1091.508423,661.234741 
	C1087.677734,661.232239 1083.824707,661.255737 1080.021118,660.875488 
	C1070.161987,659.889893 1066.157227,656.435608 1064.931763,646.779175 
	C1064.077759,640.048218 1063.499268,633.088684 1064.219238,626.384033 
	C1067.933838,591.794373 1071.970093,557.237122 1076.203003,522.706482 
	C1077.503662,512.095642 1080.302490,501.715057 1086.563721,492.810059 
	C1088.157227,490.543640 1091.267090,488.263794 1093.898071,487.975037 
	C1117.568970,485.377197 1141.273438,483.049835 1164.997925,480.986816 
	C1187.563721,479.024567 1210.176270,477.605835 1232.748657,475.714081 
	C1272.413940,472.389832 1312.023193,468.237701 1351.737305,465.714905 
	C1373.770508,464.315247 1395.969971,465.383453 1418.091675,465.606171 
	C1426.239502,465.688202 1433.091187,461.411072 1433.745605,453.400604 
	C1434.566528,443.350739 1435.633789,432.891083 1433.806519,423.130219 
	C1426.435425,383.753845 1418.305908,344.509460 1409.734985,305.374329 
	C1407.414673,294.779358 1403.187378,284.455170 1398.689697,274.525604 
	C1394.273315,264.775452 1386.228638,259.190704 1374.948853,259.139893 
	C1370.797363,259.121185 1366.654663,258.367096 1362.497437,258.176117 
	C1310.071533,255.767929 1257.663574,252.177231 1205.211426,251.330826 
	C1138.072632,250.247437 1070.894043,250.998962 1003.739990,251.683487 
	C949.097168,252.240463 894.464233,253.816986 839.828796,255.027695 
	C798.351013,255.946838 756.876892,257.032806 715.399780,257.986053 
	C683.920654,258.709534 652.435120,259.188049 620.961243,260.086304 
	C607.815308,260.461487 596.005005,265.450653 585.206970,272.723022 
	C580.246643,276.063812 576.441467,280.466461 576.015503,286.872589 
	C574.036621,316.627228 571.333008,346.356781 570.276855,376.144531 
	C568.399353,429.098206 566.868469,482.081268 566.371033,535.063110 
	C565.433838,634.878418 564.567993,734.703613 568.018066,834.503906 
	C569.307495,871.801270 569.568665,909.137390 571.114685,946.421997 
	C572.950134,990.688049 575.676147,1034.916992 577.993286,1079.163208 
	C578.890320,1096.291992 579.790771,1113.421021 580.573120,1130.555176 
	C582.054932,1163.009033 583.568665,1195.462402 584.736694,1227.927979 
	C584.881104,1231.941528 586.011963,1234.140381 589.556763,1235.384155 
	C591.123291,1235.933716 592.647888,1236.686890 594.259277,1237.011353 
	C610.213989,1240.223633 626.109619,1243.824463 642.170227,1246.386475 
	C655.792969,1248.559448 669.608643,1250.774292 683.342773,1250.798340 
	C786.665649,1250.979492 889.993774,1251.139526 993.311829,1250.284058 
	C1090.773560,1249.477051 1188.285400,1252.087036 1285.691040,1246.113525 
	C1312.947998,1244.442017 1340.318604,1244.630493 1367.636475,1243.942383 
	C1384.254028,1243.523804 1393.765869,1235.705200 1395.105469,1219.143799 
	C1395.855469,1209.869385 1394.565430,1200.216675 1392.828979,1190.991455 
	C1385.372559,1151.378296 1375.078491,1112.493896 1361.166138,1074.622192 
	C1358.187012,1066.512573 1355.159058,1058.395996 1351.610474,1050.527710 
	C1348.239990,1043.054321 1343.052002,1038.771851 1333.722412,1039.160156 
	C1288.287231,1041.051636 1242.833374,1042.568481 1197.374878,1043.799805 
	C1150.906372,1045.058228 1104.424927,1045.833740 1057.948730,1046.796021 
	C1057.009521,1046.815430 1056.064087,1046.530884 1055.469727,1046.440796 
	C1055.469727,1032.479858 1055.040039,1018.811523 1055.560913,1005.179443 
	C1056.591187,978.214783 1058.112793,951.268372 1059.511230,924.318604 
	C1059.838989,918.002380 1060.361572,911.690063 1061.008301,905.397888 
	C1062.639648,889.525574 1069.322266,876.875916 1091.977905,875.643921 
	C1096.968140,875.372498 1101.967407,875.022095 1106.959229,875.069031 
	C1134.783691,875.330566 1162.606567,875.925537 1190.430908,875.991211 
	C1247.549316,876.126038 1304.781006,878.143311 1361.393188,867.878601 
	C1370.672729,866.195984 1380.070801,864.244080 1388.846191,860.918030 
	C1402.260742,855.833618 1406.512451,848.595886 1406.061279,834.406372 
	C1405.547729,818.252625 1404.725830,802.108276 1403.994019,785.961853 
	C1402.756592,758.662842 1402.223022,731.304688 1399.987305,704.086975 
	C1398.278442,683.283875 1385.869507,668.288696 1362.676636,668.798401 
	C1358.515503,668.889893 1354.315430,669.041199 1350.189087,668.619568 
	C1301.084961,663.602173 1251.870728,660.885681 1201.500122,661.249451 
z"/>
<path fill="#FFFFFF" opacity="1.000000" stroke="none" 
	d="
M1202.000244,661.249451 
	C1251.870728,660.885681 1301.084961,663.602173 1350.189087,668.619568 
	C1354.315430,669.041199 1358.515503,668.889893 1362.676636,668.798401 
	C1385.869507,668.288696 1398.278442,683.283875 1399.987305,704.086975 
	C1402.223022,731.304688 1402.756592,758.662842 1403.994019,785.961853 
	C1404.725830,802.108276 1405.547729,818.252625 1406.061279,834.406372 
	C1406.512451,848.595886 1402.260742,855.833618 1388.846191,860.918030 
	C1380.070801,864.244080 1370.672729,866.195984 1361.393188,867.878601 
	C1304.781006,878.143311 1247.549316,876.126038 1190.430908,875.991211 
	C1162.606567,875.925537 1134.783691,875.330566 1106.959229,875.069031 
	C1101.967407,875.022095 1096.968140,875.372498 1091.977905,875.643921 
	C1069.322266,876.875916 1062.639648,889.525574 1061.008301,905.397888 
	C1060.361572,911.690063 1059.838989,918.002380 1059.511230,924.318604 
	C1058.112793,951.268372 1056.591187,978.214783 1055.560913,1005.179443 
	C1055.040039,1018.811523 1055.469727,1032.479858 1055.469727,1046.440796 
	C1056.064087,1046.530884 1057.009521,1046.815430 1057.948730,1046.796021 
	C1104.424927,1045.833740 1150.906372,1045.058228 1197.374878,1043.799805 
	C1242.833374,1042.568481 1288.287231,1041.051636 1333.722412,1039.160156 
	C1343.052002,1038.771851 1348.239990,1043.054321 1351.610474,1050.527710 
	C1355.159058,1058.395996 1358.187012,1066.512573 1361.166138,1074.622192 
	C1375.078491,1112.493896 1385.372559,1151.378296 1392.828979,1190.991455 
	C1394.565430,1200.216675 1395.855469,1209.869385 1395.105469,1219.143799 
	C1393.765869,1235.705200 1384.254028,1243.523804 1367.636475,1243.942383 
	C1340.318604,1244.630493 1312.947998,1244.442017 1285.691040,1246.113525 
	C1188.285400,1252.087036 1090.773560,1249.477051 993.311829,1250.284058 
	C889.993774,1251.139526 786.665649,1250.979492 683.342773,1250.798340 
	C669.608643,1250.774292 655.792969,1248.559448 642.170227,1246.386475 
	C626.109619,1243.824463 610.213989,1240.223633 594.259277,1237.011353 
	C592.647888,1236.686890 591.123291,1235.933716 589.556763,1235.384155 
	C586.011963,1234.140381 584.881104,1231.941528 584.736694,1227.927979 
	C583.568665,1195.462402 582.054932,1163.009033 580.573120,1130.555176 
	C579.790771,1113.421021 578.890320,1096.291992 577.993286,1079.163208 
	C575.676147,1034.916992 572.950134,990.688049 571.114685,946.421997 
	C569.568665,909.137390 569.307495,871.801270 568.018066,834.503906 
	C564.567993,734.703613 565.433838,634.878418 566.371033,535.063110 
	C566.868469,482.081268 568.399353,429.098206 570.276855,376.144531 
	C571.333008,346.356781 574.036621,316.627228 576.015503,286.872589 
	C576.441467,280.466461 580.246643,276.063812 585.206970,272.723022 
	C596.005005,265.450653 607.815308,260.461487 620.961243,260.086304 
	C652.435120,259.188049 683.920654,258.709534 715.399780,257.986053 
	C756.876892,257.032806 798.351013,255.946838 839.828796,255.027695 
	C894.464233,253.816986 949.097168,252.240463 1003.739990,251.683487 
	C1070.894043,250.998962 1138.072632,250.247437 1205.211426,251.330826 
	C1257.663574,252.177231 1310.071533,255.767929 1362.497437,258.176117 
	C1366.654663,258.367096 1370.797363,259.121185 1374.948853,259.139893 
	C1386.228638,259.190704 1394.273315,264.775452 1398.689697,274.525604 
	C1403.187378,284.455170 1407.414673,294.779358 1409.734985,305.374329 
	C1418.305908,344.509460 1426.435425,383.753845 1433.806519,423.130219 
	C1435.633789,432.891083 1434.566528,443.350739 1433.745605,453.400604 
	C1433.091187,461.411072 1426.239502,465.688202 1418.091675,465.606171 
	C1395.969971,465.383453 1373.770508,464.315247 1351.737305,465.714905 
	C1312.023193,468.237701 1272.413940,472.389832 1232.748657,475.714081 
	C1210.176270,477.605835 1187.563721,479.024567 1164.997925,480.986816 
	C1141.273438,483.049835 1117.568970,485.377197 1093.898071,487.975037 
	C1091.267090,488.263794 1088.157227,490.543640 1086.563721,492.810059 
	C1080.302490,501.715057 1077.503662,512.095642 1076.203003,522.706482 
	C1071.970093,557.237122 1067.933838,591.794373 1064.219238,626.384033 
	C1063.499268,633.088684 1064.077759,640.048218 1064.931763,646.779175 
	C1066.157227,656.435608 1070.161987,659.889893 1080.021118,660.875488 
	C1083.824707,661.255737 1087.677734,661.232239 1091.508423,661.234741 
	C1128.172363,661.258972 1164.836182,661.249329 1202.000244,661.249451 
z"/>
</svg>